<svg xmlns="http://www.w3.org/2000/svg" viewBox="0 0 128 128" width="128" height="128" role="img" aria-label="Merchant avatar">
  <defs>
    <linearGradient id="mg" x1="0" y1="0" x2="0" y2="1">
      <stop offset="0" stop-color="#3d332c"/>
      <stop offset="1" stop-color="#1c1410"/>
    </linearGradient>
  </defs>
  <circle cx="64" cy="64" r="64" fill="url(#mg)"/>
  <g transform="translate(32,32) scale(2.667)" fill="none" stroke="#ff8a5c" stroke-width="1.9" stroke-linecap="round" stroke-linejoin="round">
    <path d="m2 7 4.41-4.41A2 2 0 0 1 7.83 2h8.34a2 2 0 0 1 1.42.59L22 7"/>
    <path d="M4 12v8a2 2 0 0 0 2 2h12a2 2 0 0 0 2-2v-8"/>
    <path d="M15 22v-4a2 2 0 0 0-2-2h-2a2 2 0 0 0-2 2v4"/>
    <path d="M2 7h20"/>
  </g>
</svg>
